
<svg version="1.1" id="Layer_1" xmlns="http://www.w3.org/2000/svg" xmlns:xlink="http://www.w3.org/1999/xlink" x="0px" y="0px"
	 viewBox="0 0 512 512" style="enable-background:new 0 0 512 512;" xml:space="preserve">
		<path fill="white" d="M366.676,296.389l-53.787-48.896V56.889c0-2.518-0.475-4.926-2.252-6.704L263.491,2.778
			c-3.704-3.704-9.572-3.704-13.276,0l-47.867,47.407c-1.778,1.778-3.237,4.185-3.237,6.704v190.604l-53.787,48.896
			c-1.977,1.796-3.102,4.343-3.102,7.019v151.704c0,5.241,5.295,10.486,10.531,10.486h56.889h28.444h37.926h28.444h56.889
			c5.236,0,8.432-5.245,8.432-10.486V303.407C369.778,300.732,368.653,298.185,366.676,296.389z M199.111,446.634h-37.926V307.602
			l37.926-34.477V446.634z M265.481,446.634h-18.963v0V339.185L256,327.75l9.481,11.435V446.634z M293.926,446.634h-9.482V335.768
			c0-2.213-0.248-4.352-1.655-6.046l-18.7-22.88c-3.603-4.352-10.869-4.352-14.471,0l-19.422,22.88
			c-1.408,1.695-2.64,3.833-2.64,6.046v110.866h-9.481V255.887L256,221.407l37.926,34.479V446.634z M293.926,230.252l-31.021-28.678
			c-3.621-3.278-9.402-3.278-13.022,0l-31.809,28.678V60.815L256,22.889l37.926,37.926V230.252z M350.815,446.634h-37.926V273.125
			l37.926,34.477V446.634z"/>
		<path fill="white" d="M180.148,483.555c-5.236,0-9.482,4.241-9.482,9.482v9.481c0,5.241,4.245,9.482,9.482,9.482s9.481-4.241,9.481-9.482
			v-9.481C189.63,487.796,185.384,483.555,180.148,483.555z"/>
		<path fill="white" d="M256,483.555c-5.236,0-9.482,4.241-9.482,9.482v9.481c0,5.241,4.245,9.482,9.482,9.482s9.481-4.241,9.481-9.482v-9.481
			C265.481,487.796,261.236,483.555,256,483.555z"/>
		<path fill="white" d="M331.852,483.555c-5.236,0-9.481,4.241-9.481,9.482v9.481c0,5.241,4.245,9.482,9.481,9.482s9.482-4.241,9.482-9.482
			v-9.481C341.333,487.796,337.088,483.555,331.852,483.555z"/>
</svg>
